<svg width="270px" height="100px" viewBox="0 0 270 100" version="1.1" 
    xmlns="http://www.w3.org/2000/svg" 
    xmlns:xlink="http://www.w3.org/1999/xlink">
    <!-- Generator: Sketch 52.5 (67469) - http://www.bohemiancoding.com/sketch -->
    <title>logo horizontal</title>
    <desc>Created with Sketch.</desc>
    <g id="Page-1" stroke="none" stroke-width="1" fill="none" fill-rule="evenodd">
        <g id="Lemi-logo-horizontal" transform="translate(-40.000000, -32.000000)">
            <g id="logo-horizontal" transform="translate(40.000000, 32.000000)">
                <g id="gem">
                    <path d="M49.1238549,99.6197878 L1.64231228,28.1641043 C0.383331988,26.2688405 0.631989649,23.7462626 2.23619369,22.1368022 L22.9061636,1.40031535 C23.7993998,0.504152278 25.00889,0.000363309353 26.2726986,0.000363309353 L71.9750112,0.000363309353 C73.2376127,0.000363309353 74.44831,0.504152278 75.3415462,1.40031535 L96.0103091,22.1368022 C97.6157202,23.7462626 97.8643778,26.2688405 96.6053975,28.1641043 L49.1238549,99.6197878 Z" id="Fill-1" fill="#00CB4A"></path>
                    <path d="M49.1243377,48.1977086 C40.3440667,48.1977086 33.2259394,41.0574688 33.2259394,32.2484281 C33.2259394,23.4393873 40.3440667,16.2979365 49.1243377,16.2979365 C57.9046088,16.2979365 65.021529,23.4393873 65.021529,32.2484281 C65.021529,41.0574688 57.9046088,48.1977086 49.1243377,48.1977086 Z" id="Fill-3" fill="#FFFFFF"></path>
                    <path d="M43.2403249,36.7160432 C39.0421145,36.7160432 35.6381601,33.3021463 35.6381601,29.0889688 C35.6381601,24.8757914 39.0421145,21.4618945 43.2403249,21.4618945 C47.4385354,21.4618945 50.8424898,24.8757914 50.8424898,29.0889688 C50.8424898,33.3021463 47.4385354,36.7160432 43.2403249,36.7160432 Z" id="Fill-5" fill="#000000"></path>
                </g>
                <path d="M120,86.344218 L120,41.4043881 L127.709517,41.4043881 L127.709517,84.9991878 C127.709517,89.8254724 129.617026,90.695786 132.001413,90.695786 C132.716729,90.695786 133.352565,90.6166666 133.352565,90.6166666 L133.352565,97.4209366 C133.352565,97.4209366 132.160372,97.5791754 130.80922,97.5791754 C126.437844,97.5791754 120,96.3923841 120,86.344218 Z M139.887551,77.2454848 C139.887551,64.5072584 148.550823,56.2788389 159.995879,56.2788389 C171.361455,56.2788389 177.401902,64.6654972 177.401902,75.0301411 C177.401902,76.0586935 177.163463,78.3531567 177.163463,78.3531567 L147.835507,78.3531567 C148.232905,87.1354121 154.511789,91.5660996 161.66495,91.5660996 C168.579671,91.5660996 173.586883,86.8980539 173.586883,86.8980539 L176.766065,92.5155326 C176.766065,92.5155326 170.805098,98.2121308 161.188072,98.2121308 C148.550823,98.2121308 139.887551,89.1133976 139.887551,77.2454848 Z M148.073945,72.5774391 L169.533426,72.5774391 C169.294987,65.6940497 165.003091,62.3710341 159.83692,62.3710341 C153.955433,62.3710341 149.186659,66.0105274 148.073945,72.5774391 Z M187.910865,97.2626977 L187.910865,57.2282719 L195.381943,57.2282719 L195.381943,62.5292729 C195.381943,64.1116613 195.222984,65.4566914 195.222984,65.4566914 L195.381943,65.4566914 C197.289453,60.7886457 202.932501,56.2788389 209.211386,56.2788389 C215.967148,56.2788389 219.941126,59.3644962 221.292279,65.377572 L221.451238,65.377572 C223.676665,60.5512875 229.240234,56.2788389 235.757558,56.2788389 C244.818227,56.2788389 249.030644,61.4216011 249.030644,71.6280061 L249.030644,97.2626977 L241.321127,97.2626977 L241.321127,73.2895139 C241.321127,67.6720351 240.208413,63.2413477 234.167967,63.2413477 C228.524918,63.2413477 224.312502,67.9885128 222.88187,73.4477527 C222.484472,75.1092605 222.325513,76.9290071 222.325513,78.986112 L222.325513,97.2626977 L214.615996,97.2626977 L214.615996,73.2895139 C214.615996,68.0676322 213.8212,63.2413477 207.621795,63.2413477 C201.740308,63.2413477 197.607371,68.0676322 196.097259,73.7642304 C195.699862,75.3466188 195.620382,77.1663654 195.620382,78.986112 L195.620382,97.2626977 L187.910865,97.2626977 Z M261.685555,97.2626977 L261.685555,57.2282719 L269.395072,57.2282719 L269.395072,97.2626977 L261.685555,97.2626977 Z M265.584469,41 C268.023197,41 270,42.9479895 270,45.3511712 L270,45.4398753 C270,47.8430571 268.023197,49.7910465 265.584469,49.7910465 C263.145741,49.7910465 261.168938,47.8430571 261.168938,45.4398753 L261.168938,45.3511712 C261.168938,42.9479895 263.145741,41 265.584469,41 Z" id="lemi" fill="#000000"></path>
            </g>
        </g>
    </g>
</svg>