<svg xmlns="http://www.w3.org/2000/svg" 
    xmlns:xlink="http://www.w3.org/1999/xlink" width="36px" height="37px" viewBox="0 0 36 37" version="1.1">
    <!-- Generator: Sketch 52.5 (67469) - http://www.bohemiancoding.com/sketch -->
    <title>Page 1 Copy 2</title>
    <desc>Created with Sketch.</desc>
    <g id="Page-1" stroke="none" stroke-width="1" fill="none" fill-rule="evenodd">
        <g id="Page-1-Copy-2">
            <path d="M18.0000175,37 L0.298227719,10.4603939 C-0.171137918,9.7564673 -0.0784348296,8.81954778 0.519635096,8.22177243 L8.22569183,0.519961099 C8.55870293,0.187114029 9.00961795,0 9.48078365,0 L26.5192513,0 C26.989967,0 27.441332,0.187114029 27.7743431,0.519961099 L35.4799498,8.22177243 C36.0784698,8.81954778 36.1711729,9.7564673 35.7018072,10.4603939 L18.0000175,37 Z" id="Fill-1" fill="#00CB4A"/>
            <g id="Group-2" transform="translate(17.000000, 12.500000) scale(1, -1) translate(-17.000000, -12.500000) translate(11.000000, 6.000000)">
                <path d="M6.05284737,12.025641 C2.91348688,12.025641 0.368421053,9.47738195 0.368421053,6.33354943 C0.368421053,3.18971692 2.91348688,0.641025641 6.05284737,0.641025641 C9.19220786,0.641025641 11.7368421,3.18971692 11.7368421,6.33354943 C11.7368421,9.47738195 9.19220786,12.025641 6.05284737,12.025641 Z" id="Fill-3" fill="#FFFFFF"/>
                <path d="M4.63157895,6.33333333 C3.32364493,6.33333333 2.26315789,5.27171222 2.26315789,3.96153846 C2.26315789,2.6513647 3.32364493,1.58974359 4.63157895,1.58974359 C5.93951296,1.58974359 7,2.6513647 7,3.96153846 C7,5.27171222 5.93951296,6.33333333 4.63157895,6.33333333 Z" id="Fill-5" fill="#000000"/>
            </g>
        </g>
    </g>
</svg>